HIERARCHY
ROOT hip
{
  OFFSET 5.70873 43.8894 -1.52928
  CHANNELS 6 Xposition Yposition Zposition Zrotation Xrotation Yrotation
  JOINT abdomen
  {
    OFFSET 0 5.99393 0.287273
    CHANNELS 6 Xposition Yposition Zposition Zrotation Xrotation Yrotation
    JOINT chest
    {
      OFFSET 0 6.65865 -0.856112
      CHANNELS 6 Xposition Yposition Zposition Zrotation Xrotation Yrotation
      JOINT neck
      {
        OFFSET 0 8.65624 -1.42685
        CHANNELS 6 Xposition Yposition Zposition Zrotation Xrotation Yrotation
        JOINT head
        {
          OFFSET 0 3.80999 -0.190247
          CHANNELS 6 Xposition Yposition Zposition Zrotation Xrotation Yrotation
          End Site
          {
            OFFSET 0 0 0
          }
        }
      }
      JOINT rCollar
      {
        OFFSET -1.4963 7.5744 -1.52136
        CHANNELS 6 Xposition Yposition Zposition Zrotation Xrotation Yrotation
        JOINT rShldr
        {
          OFFSET -5.47506 -0.905672 0.485692
          CHANNELS 6 Xposition Yposition Zposition Zrotation Xrotation Yrotation
          JOINT rForeArm
          {
            OFFSET -11.3069 -0.201091 0.618544
            CHANNELS 6 Xposition Yposition Zposition Zrotation Xrotation Yrotation
            JOINT rHand
            {
              OFFSET -9.61414 -0.254739 3.48553
              CHANNELS 6 Xposition Yposition Zposition Zrotation Xrotation Yrotation
              JOINT rThumb1
              {
                OFFSET 0.176263 -0.07068 1.26622
                CHANNELS 6 Xposition Yposition Zposition Zrotation Xrotation Yrotation
                JOINT rThumb2
                {
                  OFFSET -1.04683 -0.546484 1.82182
                  CHANNELS 6 Xposition Yposition Zposition Zrotation Xrotation Yrotation
                  JOINT rThumb3
                  {
                    OFFSET -0.993472 -0.621916 0.655506
                    CHANNELS 6 Xposition Yposition Zposition Zrotation Xrotation Yrotation
                    End Site
                    {
                      OFFSET -0.996134 -0.66263 0.644615
                    }
                  }
                }
              }
              JOINT rIndex1
              {
                OFFSET -2.64253 0.566363 2.4162
                CHANNELS 6 Xposition Yposition Zposition Zrotation Xrotation Yrotation
                JOINT rIndex2
                {
                  OFFSET -1.39394 -0.635138 0.899356
                  CHANNELS 6 Xposition Yposition Zposition Zrotation Xrotation Yrotation
                  JOINT rIndex3
                  {
                    OFFSET -0.622395 -0.856016 0.402182
                    CHANNELS 6 Xposition Yposition Zposition Zrotation Xrotation Yrotation
                    End Site
                    {
                      OFFSET -0.472476 -0.801802 0.34216
                    }
                  }
                }
              }
              JOINT rMid1
              {
                OFFSET -3.20814 0.514427 1.52547
                CHANNELS 6 Xposition Yposition Zposition Zrotation Xrotation Yrotation
                JOINT rMid2
                {
                  OFFSET -1.56545 -0.497974 0.68919
                  CHANNELS 6 Xposition Yposition Zposition Zrotation Xrotation Yrotation
                  JOINT rMid3
                  {
                    OFFSET -0.679943 -1.17582 0.444246
                    CHANNELS 6 Xposition Yposition Zposition Zrotation Xrotation Yrotation
                    End Site
                    {
                      OFFSET -0.343874 -0.941341 0.267611
                    }
                  }
                }
              }
              JOINT rRing1
              {
                OFFSET -3.47877 0.200518 0.597719
                CHANNELS 6 Xposition Yposition Zposition Zrotation Xrotation Yrotation
                JOINT rRing2
                {
                  OFFSET -1.28208 -0.53155 0.44672
                  CHANNELS 6 Xposition Yposition Zposition Zrotation Xrotation Yrotation
                  JOINT rRing3
                  {
                    OFFSET -0.710288 -0.970167 0.4032
                    CHANNELS 6 Xposition Yposition Zposition Zrotation Xrotation Yrotation
                    End Site
                    {
                      OFFSET -0.403228 -0.950952 0.378354
                    }
                  }
                }
              }
              JOINT rPinky1
              {
                OFFSET -3.42483 -0.278904 -0.240415
                CHANNELS 6 Xposition Yposition Zposition Zrotation Xrotation Yrotation
                JOINT rPinky2
                {
                  OFFSET -1.05787 -0.635999 0.156459
                  CHANNELS 6 Xposition Yposition Zposition Zrotation Xrotation Yrotation
                  JOINT rPinky3
                  {
                    OFFSET -0.42815 -0.754232 0.287187
                    CHANNELS 6 Xposition Yposition Zposition Zrotation Xrotation Yrotation
                    End Site
                    {
                      OFFSET -0.235717 -0.725605 0.279416
                    }
                  }
                }
              }
            }
          }
        }
      }
      JOINT lCollar
      {
        OFFSET 1.4963 7.5744 -1.52136
        CHANNELS 6 Xposition Yposition Zposition Zrotation Xrotation Yrotation
        JOINT lShldr
        {
          OFFSET 5.47506 -0.905672 0.485692
          CHANNELS 6 Xposition Yposition Zposition Zrotation Xrotation Yrotation
          JOINT lForeArm
          {
            OFFSET 11.3069 -0.201091 0.618544
            CHANNELS 6 Xposition Yposition Zposition Zrotation Xrotation Yrotation
            JOINT lHand
            {
              OFFSET 9.61414 -0.254739 3.48553
              CHANNELS 6 Xposition Yposition Zposition Zrotation Xrotation Yrotation
              JOINT lThumb1
              {
                OFFSET -0.176263 -0.07068 1.26622
                CHANNELS 6 Xposition Yposition Zposition Zrotation Xrotation Yrotation
                JOINT lThumb2
                {
                  OFFSET 1.04683 -0.546484 1.82182
                  CHANNELS 6 Xposition Yposition Zposition Zrotation Xrotation Yrotation
                  JOINT lThumb3
                  {
                    OFFSET 0.993472 -0.621916 0.655506
                    CHANNELS 6 Xposition Yposition Zposition Zrotation Xrotation Yrotation
                    End Site
                    {
                      OFFSET 0.996134 -0.66263 0.644615
                    }
                  }
                }
              }
              JOINT lIndex1
              {
                OFFSET 2.64253 0.566363 2.4162
                CHANNELS 6 Xposition Yposition Zposition Zrotation Xrotation Yrotation
                JOINT lIndex2
                {
                  OFFSET 1.39394 -0.635138 0.899356
                  CHANNELS 6 Xposition Yposition Zposition Zrotation Xrotation Yrotation
                  JOINT lIndex3
                  {
                    OFFSET 0.622395 -0.856016 0.402182
                    CHANNELS 6 Xposition Yposition Zposition Zrotation Xrotation Yrotation
                    End Site
                    {
                      OFFSET 0.472476 -0.801802 0.34216
                    }
                  }
                }
              }
              JOINT lMid1
              {
                OFFSET 3.20814 0.514427 1.52547
                CHANNELS 6 Xposition Yposition Zposition Zrotation Xrotation Yrotation
                JOINT lMid2
                {
                  OFFSET 1.56545 -0.497974 0.68919
                  CHANNELS 6 Xposition Yposition Zposition Zrotation Xrotation Yrotation
                  JOINT lMid3
                  {
                    OFFSET 0.679943 -1.17582 0.444246
                    CHANNELS 6 Xposition Yposition Zposition Zrotation Xrotation Yrotation
                    End Site
                    {
                      OFFSET 0.343874 -0.941341 0.267611
                    }
                  }
                }
              }
              JOINT lRing1
              {
                OFFSET 3.47877 0.200518 0.597719
                CHANNELS 6 Xposition Yposition Zposition Zrotation Xrotation Yrotation
                JOINT lRing2
                {
                  OFFSET 1.28208 -0.53155 0.44672
                  CHANNELS 6 Xposition Yposition Zposition Zrotation Xrotation Yrotation
                  JOINT lRing3
                  {
                    OFFSET 0.710288 -0.970167 0.4032
                    CHANNELS 6 Xposition Yposition Zposition Zrotation Xrotation Yrotation
                    End Site
                    {
                      OFFSET 0.403228 -0.950952 0.378354
                    }
                  }
                }
              }
              JOINT lPinky1
              {
                OFFSET 3.42483 -0.278904 -0.240415
                CHANNELS 6 Xposition Yposition Zposition Zrotation Xrotation Yrotation
                JOINT lPinky2
                {
                  OFFSET 1.05787 -0.635999 0.156459
                  CHANNELS 6 Xposition Yposition Zposition Zrotation Xrotation Yrotation
                  JOINT lPinky3
                  {
                    OFFSET 0.42815 -0.754232 0.287187
                    CHANNELS 6 Xposition Yposition Zposition Zrotation Xrotation Yrotation
                    End Site
                    {
                      OFFSET 0.235717 -0.725605 0.279416
                    }
                  }
                }
              }
            }
          }
        }
      }
    }
  }
  JOINT rThigh
  {
    OFFSET -4.17848 -1.02486 0.046356
    CHANNELS 6 Xposition Yposition Zposition Zrotation Xrotation Yrotation
    JOINT rShin
    {
      OFFSET 1.27155 -17.465 -0.237699
      CHANNELS 6 Xposition Yposition Zposition Zrotation Xrotation Yrotation
      JOINT rFoot
      {
        OFFSET 0.529163 -17.3815 -1.19582
        CHANNELS 6 Xposition Yposition Zposition Zrotation Xrotation Yrotation
        JOINT rToe
        {
          OFFSET -0.711591 -4.4863 4.0596
          CHANNELS 6 Xposition Yposition Zposition Zrotation Xrotation Yrotation
          End Site
          {
            OFFSET -0.869915 -1.10655 1.99006
          }
        }
      }
    }
  }
  JOINT lThigh
  {
    OFFSET 4.17848 -1.02486 0.046356
    CHANNELS 6 Xposition Yposition Zposition Zrotation Xrotation Yrotation
    JOINT lShin
    {
      OFFSET -1.27155 -17.465 -0.237699
      CHANNELS 6 Xposition Yposition Zposition Zrotation Xrotation Yrotation
      JOINT lFoot
      {
        OFFSET -0.529163 -17.3815 -1.19582
        CHANNELS 6 Xposition Yposition Zposition Zrotation Xrotation Yrotation
        JOINT lToe
        {
          OFFSET 0.711591 -4.4863 4.0596
          CHANNELS 6 Xposition Yposition Zposition Zrotation Xrotation Yrotation
          End Site
          {
            OFFSET 0.869915 -1.10655 1.99006
          }
        }
      }
    }
  }
}
MOTION
Frames:	4
Frame Time:	0.0333333
4.49492 15.5124 -17.851 13.1856 12.6674 -48.228 -1.77636e-015 5.99393 0.287273 0.145098 -1.01084 2.34386 0 6.65865 -0.856112 0.331518 -2.01489 4.69135 8.88178e-016 8.65624 -1.42685 -1.93953 -34.5327 -8.16722 0 3.80999 -0.190247 6.02836 -5.57095 -3.87638 -1.4963 7.5744 -1.52136 -12.7388 -0.805359 32.8297 -5.47506 -0.905672 0.485692 44.3987 -25.2778 42.5442 -11.3069 -0.201091 0.618544 18.5698 -16.6004 99.0467 -9.61414 -0.254739 3.48553 -20.7628 -29.8016 -50.9771 0.176263 -0.07068 1.26622 -27.0717 34.1213 37.4742 -1.04683 -0.546484 1.82182 3.31224 -2.96559 9.24491 -0.993472 -0.621916 0.655506 -4.32714 5.93885 -14.9479 -2.64253 0.566363 2.4162 13.4016 5.92005 -12.0724 -1.39394 -0.635138 0.899356 44.7396 8.15935 -10.1718 -0.622395 -0.856016 0.402182 45.8625 8.24911 -10.4911 -3.20814 0.514427 1.52547 7.10267 0.886154 -2.24132 -1.56545 -0.497974 0.68919 52.741 10.533 -13.0892 -0.679943 -1.17582 0.444246 15.4525 4.36311 -2.78813 -3.47877 0.200518 0.597719 14.3237 -1.13299 -5.51464 -1.28208 -0.53155 0.44672 21.365 6.41236 -5.10256 -0.710288 -0.970167 0.4032 22.9812 6.8063 -5.5729 -3.42483 -0.278904 -0.240415 -6.90718 -7.98181 -6.36679 -1.05787 -0.635999 0.156459 25.752 8.21717 -6.21987 -0.42815 -0.754232 0.287187 15.2761 5.26326 -3.27307 1.4963 7.5744 -1.52136 0.443195 -0.764448 -7.312 5.47506 -0.905672 0.485692 -55.9022 6.92121 -54.7842 11.3069 -0.201091 0.618544 -27.4121 -9.44585 -82.8697 9.61414 -0.254739 3.48553 -5.26255 -10.0549 23.1426 -0.176263 -0.07068 1.26622 24.2782 38.4818 -35.502 1.04683 -0.546484 1.82182 -6.53183 -1.24814 -11.4632 0.993472 -0.621916 0.655506 6.45118 2.66718 11.8095 2.64253 0.566363 2.4162 -5.18978 4.48298 12.5249 1.39394 -0.635138 0.899356 -36.9452 6.74312 17.0314 0.622395 -0.856016 0.402182 -38.0065 6.76617 17.5558 3.20814 0.514427 1.52547 -1.48521 -0.683632 1.67107 1.56545 -0.497974 0.68919 -44.4869 8.35693 21.4001 0.679943 -1.17582 0.444246 -9.36104 3.19914 3.99163 3.47877 0.200518 0.597719 -8.0766 -2.63754 5.99024 1.28208 -0.53155 0.44672 -14.781 5.15019 7.2948 0.710288 -0.970167 0.4032 -16.2802 5.55301 8.08466 3.42483 -0.278904 -0.240415 11.7678 -11.303 2.60142 1.05787 -0.635999 0.156459 -18.8959 6.82267 9.38287 0.42815 -0.754232 0.287187 -9.1883 3.76107 4.34948 -4.17848 -1.02486 0.046356 -60.6292 -22.7652 -29.8644 1.27155 -17.465 -0.237699 153.272 55.8386 -142.092 0.529163 -17.3815 -1.19582 -6.42319 43.0717 32.9613 -0.711591 -4.4863 4.0596 -26.4933 32.5351 -6.79039 4.17848 -1.02486 0.046356 60.9918 -45.5331 41.1925 -1.27155 -17.465 -0.237699 169.111 58.8218 -169.861 -0.529163 -17.3815 -1.19582 7.35353 45.5189 -41.0698 0.711591 -4.4863 4.0596 12.2463 54.0096 12.5934 
3.96809 15.8347 -17.3509 16.1891 16.1243 -47.7905 0 5.99393 0.287273 0.24928 -2.91717 2.29339 0 6.65865 -0.856112 0.616619 -5.82195 4.60845 -8.88178e-016 8.65624 -1.42685 -2.28306 -35.6369 -8.95739 8.88178e-016 3.80999 -0.190247 5.60598 -5.25008 -4.22188 -1.4963 7.5744 -1.52136 -11.5604 -0.936973 32.2836 -5.47506 -0.905672 0.485692 44.5606 -23.0262 39.7011 -11.3069 -0.201091 0.618544 21.0698 -14.7663 104.685 -9.61414 -0.254739 3.48553 -20.1587 -28.4094 -52.3297 0.176263 -0.07068 1.26622 -27.0717 34.1214 37.4742 -1.04683 -0.546484 1.82182 3.31223 -2.96558 9.24491 -0.993472 -0.621916 0.655506 -4.32718 5.93891 -14.9478 -2.64253 0.566363 2.4162 13.4015 5.9201 -12.0724 -1.39394 -0.635138 0.899356 44.7396 8.15936 -10.1718 -0.622395 -0.856016 0.402182 45.8625 8.2491 -10.4911 -3.20814 0.514427 1.52547 7.10264 0.886192 -2.24134 -1.56545 -0.497974 0.68919 52.741 10.5331 -13.0892 -0.679943 -1.17582 0.444246 15.4526 4.3631 -2.78814 -3.47877 0.200518 0.597719 14.3236 -1.13299 -5.51465 -1.28208 -0.53155 0.44672 21.365 6.41237 -5.10256 -0.710288 -0.970167 0.4032 22.9813 6.80617 -5.57299 -3.42483 -0.278904 -0.240415 -6.90718 -7.98181 -6.3668 -1.05787 -0.635999 0.156459 25.752 8.21719 -6.21987 -0.42815 -0.754232 0.287187 15.2761 5.26325 -3.27306 1.4963 7.5744 -1.52136 0.239967 -0.817621 -6.62838 5.47506 -0.905672 0.485692 -56.8191 7.58291 -51.688 11.3069 -0.201091 0.618544 -30.6831 -3.13905 -85.2435 9.61414 -0.254739 3.48553 -2.83238 -8.47147 23.6232 -0.176263 -0.07068 1.26622 24.2782 38.4819 -35.502 1.04683 -0.546484 1.82182 -6.53184 -1.24816 -11.4632 0.993472 -0.621916 0.655506 6.45118 2.66719 11.8095 2.64253 0.566363 2.4162 -5.18973 4.4831 12.5249 1.39394 -0.635138 0.899356 -36.9452 6.74309 17.0314 0.622395 -0.856016 0.402182 -38.0065 6.7661 17.5558 3.20814 0.514427 1.52547 -1.48521 -0.683626 1.67107 1.56545 -0.497974 0.68919 -44.4869 8.35708 21.4002 0.679943 -1.17582 0.444246 -9.36103 3.19912 3.99164 3.47877 0.200518 0.597719 -8.0766 -2.63756 5.99023 1.28208 -0.53155 0.44672 -14.781 5.1502 7.2948 0.710288 -0.970167 0.4032 -16.2802 5.553 8.08467 3.42483 -0.278904 -0.240415 11.7678 -11.303 2.60142 1.05787 -0.635999 0.156459 -18.8959 6.82267 9.38286 0.42815 -0.754232 0.287187 -9.18829 3.76106 4.34947 -4.17848 -1.02486 0.046356 -59.9564 -22.4328 -33.556 1.27155 -17.465 -0.237699 151.069 58.0856 -140.073 0.529163 -17.3815 -1.19582 -4.97591 43.0536 32.0327 -0.711591 -4.4863 4.0596 -26.5417 32.7094 -6.25175 4.17848 -1.02486 0.046356 63.3642 -46.9716 44.922 -1.27155 -17.465 -0.237699 168.769 60.4343 -169.554 -0.529163 -17.3815 -1.19582 7.56269 44.6728 -40.6653 0.711591 -4.4863 4.0596 12.3293 54.0964 11.9161 
3.36729 16.2119 -16.7994 18.4397 18.9411 -47.4206 0 5.99393 0.287273 0.322864 -4.52183 2.26258 1.77636e-015 6.65865 -0.856112 0.82907 -9.02732 4.57222 8.88178e-016 8.65624 -1.42685 -2.64049 -36.5265 -9.75764 0 3.80999 -0.190247 5.11778 -4.90046 -4.58412 -1.4963 7.5744 -1.52136 -10.4029 -1.05479 31.8214 -5.47506 -0.905672 0.485692 44.7404 -20.508 36.3961 -11.3069 -0.201091 0.618544 23.9828 -11.6308 109.965 -9.61414 -0.254739 3.48553 -20.0717 -26.1999 -52.5938 0.176263 -0.07068 1.26622 -27.0716 34.1213 37.4741 -1.04683 -0.546484 1.82182 3.3122 -2.96556 9.24493 -0.993472 -0.621916 0.655506 -4.32711 5.93878 -14.9479 -2.64253 0.566363 2.4162 13.4016 5.92018 -12.0724 -1.39394 -0.635138 0.899356 44.7396 8.15937 -10.1719 -0.622395 -0.856016 0.402182 45.8625 8.24916 -10.4911 -3.20814 0.514427 1.52547 7.10266 0.886296 -2.24135 -1.56545 -0.497974 0.68919 52.741 10.5331 -13.0892 -0.679943 -1.17582 0.444246 15.4525 4.36312 -2.78813 -3.47877 0.200518 0.597719 14.3237 -1.13297 -5.51465 -1.28208 -0.53155 0.44672 21.3649 6.41242 -5.10253 -0.710288 -0.970167 0.4032 22.9813 6.80615 -5.57299 -3.42483 -0.278904 -0.240415 -6.90714 -7.98179 -6.36679 -1.05787 -0.635999 0.156459 25.752 8.21722 -6.21986 -0.42815 -0.754232 0.287187 15.2761 5.26326 -3.27307 1.4963 7.5744 -1.52136 -0.0853936 -0.88708 -5.8076 5.47506 -0.905672 0.485692 -57.5503 8.14008 -48.4252 11.3069 -0.201091 0.618544 -33.1008 3.18128 -86.4105 9.61414 -0.254739 3.48553 -0.733598 -7.39255 23.2872 -0.176263 -0.07068 1.26622 24.2783 38.4819 -35.5021 1.04683 -0.546484 1.82182 -6.53187 -1.24817 -11.4632 0.993472 -0.621916 0.655506 6.45117 2.66717 11.8095 2.64253 0.566363 2.4162 -5.18975 4.4831 12.5249 1.39394 -0.635138 0.899356 -36.9452 6.74301 17.0314 0.622395 -0.856016 0.402182 -38.0065 6.76621 17.5558 3.20814 0.514427 1.52547 -1.48522 -0.683639 1.67107 1.56545 -0.497974 0.68919 -44.4869 8.3571 21.4002 0.679943 -1.17582 0.444246 -9.36103 3.19909 3.99165 3.47877 0.200518 0.597719 -8.07663 -2.63759 5.99024 1.28208 -0.53155 0.44672 -14.781 5.15022 7.29479 0.710288 -0.970167 0.4032 -16.2802 5.55299 8.08467 3.42483 -0.278904 -0.240415 11.7678 -11.303 2.60142 1.05787 -0.635999 0.156459 -18.8959 6.82265 9.38287 0.42815 -0.754232 0.287187 -9.18831 3.76105 4.34947 -4.17848 -1.02486 0.046356 -58.4477 -21.6806 -36.1247 1.27155 -17.465 -0.237699 147.982 60.7549 -137.22 0.529163 -17.3815 -1.19582 -3.52352 43.3248 31.2318 -0.711591 -4.4863 4.0596 -26.5821 32.8263 -5.86293 4.17848 -1.02486 0.046356 64.5111 -47.5421 47.1857 -1.27155 -17.465 -0.237699 168.312 62.3983 -169.185 -0.529163 -17.3815 -1.19582 7.66332 43.7566 -39.9403 0.711591 -4.4863 4.0596 12.7455 54.1983 11.2941 
2.72522 16.6066 -16.2376 19.9422 21.0722 -47.0415 -1.77636e-015 5.99393 0.287273 0.368408 -5.80231 2.24168 0 6.65865 -0.856112 0.973567 -11.5855 4.55625 -8.88178e-016 8.65624 -1.42685 -2.97487 -37.0998 -10.5235 1.77636e-015 3.80999 -0.190247 4.58462 -4.57207 -4.92253 -1.4963 7.5744 -1.52136 -9.26499 -1.15134 31.4424 -5.47506 -0.905672 0.485692 44.8749 -17.8787 32.696 -11.3069 -0.201091 0.618544 26.9094 -7.24387 114.357 -9.61414 -0.254739 3.48553 -20.441 -23.3553 -51.6 0.176263 -0.07068 1.26622 -27.0716 34.1213 37.4741 -1.04683 -0.546484 1.82182 3.31216 -2.96549 9.24496 -0.993472 -0.621916 0.655506 -4.3271 5.93876 -14.9479 -2.64253 0.566363 2.4162 13.4016 5.92003 -12.0724 -1.39394 -0.635138 0.899356 44.7396 8.1594 -10.1719 -0.622395 -0.856016 0.402182 45.8625 8.24922 -10.4912 -3.20814 0.514427 1.52547 7.10268 0.886103 -2.24132 -1.56545 -0.497974 0.68919 52.741 10.5331 -13.0892 -0.679943 -1.17582 0.444246 15.4525 4.36309 -2.78813 -3.47877 0.200518 0.597719 14.3236 -1.13299 -5.51464 -1.28208 -0.53155 0.44672 21.3649 6.41254 -5.10253 -0.710288 -0.970167 0.4032 22.9812 6.80617 -5.57299 -3.42483 -0.278904 -0.240415 -6.90718 -7.98182 -6.36681 -1.05787 -0.635999 0.156459 25.752 8.21733 -6.21985 -0.42815 -0.754232 0.287187 15.2761 5.26326 -3.27307 1.4963 7.5744 -1.52136 -0.402849 -0.972422 -4.89489 5.47506 -0.905672 0.485692 -58.0649 8.54872 -45.1527 11.3069 -0.201091 0.618544 -34.8875 9.05654 -86.5876 9.61414 -0.254739 3.48553 0.917333 -6.78571 22.2103 -0.176263 -0.07068 1.26622 24.2783 38.482 -35.5021 1.04683 -0.546484 1.82182 -6.53191 -1.24824 -11.4632 0.993472 -0.621916 0.655506 6.45116 2.66715 11.8095 2.64253 0.566363 2.4162 -5.18973 4.48309 12.5249 1.39394 -0.635138 0.899356 -36.9452 6.74316 17.0315 0.622395 -0.856016 0.402182 -38.0064 6.76622 17.5558 3.20814 0.514427 1.52547 -1.48521 -0.683637 1.67107 1.56545 -0.497974 0.68919 -44.4869 8.35709 21.4002 0.679943 -1.17582 0.444246 -9.36102 3.19906 3.99166 3.47877 0.200518 0.597719 -8.07663 -2.63762 5.99022 1.28208 -0.53155 0.44672 -14.781 5.15019 7.29477 0.710288 -0.970167 0.4032 -16.2802 5.55298 8.08466 3.42483 -0.278904 -0.240415 11.7678 -11.303 2.60142 1.05787 -0.635999 0.156459 -18.8959 6.82264 9.38286 0.42815 -0.754232 0.287187 -9.18829 3.76104 4.34946 -4.17848 -1.02486 0.046356 -56.324 -20.5871 -37.679 1.27155 -17.465 -0.237699 143.921 63.6227 -133.385 0.529163 -17.3815 -1.19582 -2.21889 43.8534 30.614 -0.711591 -4.4863 4.0596 -26.5823 32.86 -5.65225 4.17848 -1.02486 0.046356 64.5064 -47.4469 48.016 -1.27155 -17.465 -0.237699 167.741 64.5613 -168.75 -0.529163 -17.3815 -1.19582 7.71551 42.8706 -38.9711 0.711591 -4.4863 4.0596 13.4759 54.2748 10.8159 
